<?xml version="1.0" encoding="utf-8" standalone="no"?>
<!DOCTYPE svg PUBLIC "-//W3C//DTD SVG 1.1//EN"
  "http://www.w3.org/Graphics/SVG/1.1/DTD/svg11.dtd">
<svg xmlns:xlink="http://www.w3.org/1999/xlink" width="460.8pt" height="345.6pt" viewBox="0 0 460.8 345.6" xmlns="http://www.w3.org/2000/svg" version="1.1">
 <metadata>
  <rdf:RDF xmlns:dc="http://purl.org/dc/elements/1.1/" xmlns:cc="http://creativecommons.org/ns#" xmlns:rdf="http://www.w3.org/1999/02/22-rdf-syntax-ns#">
   <cc:Work>
    <dc:type rdf:resource="http://purl.org/dc/dcmitype/StillImage"/>
    <dc:date>2025-09-07T22:48:55.032392</dc:date>
    <dc:format>image/svg+xml</dc:format>
    <dc:creator>
     <cc:Agent>
      <dc:title>Matplotlib v3.10.6, https://matplotlib.org/</dc:title>
     </cc:Agent>
    </dc:creator>
   </cc:Work>
  </rdf:RDF>
 </metadata>
 <defs>
  <style type="text/css">*{stroke-linejoin: round; stroke-linecap: butt}</style>
 </defs>
 <g id="figure_1">
  <g id="patch_1">
   <path d="M 0 345.6 
L 460.8 345.6 
L 460.8 0 
L 0 0 
z
" style="fill: #ffffff"/>
  </g>
  <g id="axes_1">
   <g id="line2d_1">
    <path d="M 73.832727 295.488 
L 77.112066 295.478538 
L 80.391405 295.468319 
L 83.670744 295.457282 
L 86.950083 295.445361 
L 90.229421 295.432486 
L 93.50876 295.418579 
L 96.788099 295.40356 
L 100.067438 295.387338 
L 103.346777 295.369817 
L 106.626116 295.350894 
L 109.905455 295.330456 
L 113.184793 295.308381 
L 116.464132 295.284539 
L 119.743471 295.258788 
L 123.02281 295.230976 
L 126.302149 295.200937 
L 129.581488 295.168493 
L 132.860826 295.133452 
L 136.140165 295.095605 
L 139.419504 295.054728 
L 142.698843 295.010579 
L 145.978182 294.962895 
L 149.257521 294.911394 
L 152.53686 294.855769 
L 155.816198 294.795691 
L 159.095537 294.730804 
L 162.374876 294.660721 
L 165.654215 294.585028 
L 168.933554 294.503274 
L 172.212893 294.414976 
L 175.492231 294.319608 
L 178.77157 294.216605 
L 182.050909 294.105356 
L 185.330248 293.9852 
L 188.609587 293.855425 
L 191.888926 293.715259 
L 195.168264 293.563873 
L 198.447603 293.400366 
L 201.726942 293.223769 
L 205.006281 293.033033 
L 208.28562 292.827028 
L 211.564959 292.604529 
L 214.844298 292.364217 
L 218.123636 292.104667 
L 221.402975 291.824336 
L 224.682314 291.521562 
L 227.961653 291.194549 
L 231.240992 290.841355 
L 234.520331 290.459884 
L 237.799669 290.047872 
L 241.079008 289.602875 
L 244.358347 289.122252 
L 247.637686 288.60315 
L 250.917025 288.042489 
L 254.196364 287.436942 
L 257.475702 286.782915 
L 260.755041 286.076526 
L 264.03438 285.313585 
L 267.313719 284.489562 
L 270.593058 283.599568 
L 273.872397 282.638322 
L 277.151736 281.600118 
L 280.431074 280.478796 
L 283.710413 279.267702 
L 286.989752 277.959647 
L 290.269091 276.54687 
L 293.54843 275.020987 
L 296.827769 273.372941 
L 300.107107 271.592954 
L 303.386446 269.670461 
L 306.665785 267.594054 
L 309.945124 265.35141 
L 313.224463 262.929221 
L 316.503802 260.313112 
L 319.78314 257.487558 
L 323.062479 254.43579 
L 326.341818 251.1397 
L 329.621157 247.579724 
L 332.900496 243.734739 
L 336.179835 239.581925 
L 339.459174 235.096637 
L 342.738512 230.252259 
L 346.017851 225.020041 
L 349.29719 219.368932 
L 352.576529 213.265398 
L 355.855868 206.673216 
L 359.135207 199.553266 
L 362.414545 191.863295 
L 365.693884 183.557666 
L 368.973223 174.587091 
L 372.252562 164.898334 
L 375.531901 154.433898 
L 378.81124 143.131682 
L 382.090579 130.924613 
L 385.369917 117.74025 
L 388.649256 103.50035 
L 391.928595 88.120407 
L 395.207934 71.50915 
L 398.487273 53.568 
" clip-path="url(#pc496a6ee3b)" style="fill: none; stroke: #1f77b4; stroke-width: 1.5; stroke-linecap: square"/>
   </g>
  </g>
 </g>
 <defs>
  <clipPath id="pc496a6ee3b">
   <rect x="57.6" y="41.472" width="357.12" height="266.112"/>
  </clipPath>
 </defs>
</svg>
