<?xml version="1.0" encoding="utf-8" standalone="no"?>
<!DOCTYPE svg PUBLIC "-//W3C//DTD SVG 1.1//EN"
  "http://www.w3.org/Graphics/SVG/1.1/DTD/svg11.dtd">
<svg xmlns:xlink="http://www.w3.org/1999/xlink" width="460.8pt" height="345.6pt" viewBox="0 0 460.8 345.6" xmlns="http://www.w3.org/2000/svg" version="1.1">
 <metadata>
  <rdf:RDF xmlns:dc="http://purl.org/dc/elements/1.1/" xmlns:cc="http://creativecommons.org/ns#" xmlns:rdf="http://www.w3.org/1999/02/22-rdf-syntax-ns#">
   <cc:Work>
    <dc:type rdf:resource="http://purl.org/dc/dcmitype/StillImage"/>
    <dc:date>2025-09-08T21:14:53.507238</dc:date>
    <dc:format>image/svg+xml</dc:format>
    <dc:creator>
     <cc:Agent>
      <dc:title>Matplotlib v3.9.2, https://matplotlib.org/</dc:title>
     </cc:Agent>
    </dc:creator>
   </cc:Work>
  </rdf:RDF>
 </metadata>
 <defs>
  <style type="text/css">*{stroke-linejoin: round; stroke-linecap: butt}</style>
 </defs>
 <g id="figure_1">
  <g id="patch_1">
   <path d="M 0 345.6 
L 460.8 345.6 
L 460.8 0 
L 0 0 
z
" style="fill: #ffffff"/>
  </g>
  <g id="axes_1">
   <g id="line2d_1">
    <path d="M 73.832727 174.528 
L 77.112066 182.200723 
L 80.391405 189.842551 
L 83.670744 197.422712 
L 86.950083 204.910685 
L 90.229421 212.276317 
L 93.50876 219.48995 
L 96.788099 226.522537 
L 100.067438 233.345761 
L 103.346777 239.932146 
L 106.626116 246.255172 
L 109.905455 252.289377 
L 113.184793 258.010465 
L 116.464132 263.395399 
L 119.743471 268.422495 
L 123.02281 273.071511 
L 126.302149 277.323727 
L 129.581488 281.162021 
L 132.860826 284.570938 
L 136.140165 287.53675 
L 139.419504 290.047516 
L 142.698843 292.093126 
L 145.978182 293.665342 
L 149.257521 294.757834 
L 152.53686 295.366204 
L 155.816198 295.488 
L 159.095537 295.122733 
L 162.374876 294.271874 
L 165.654215 292.938849 
L 168.933554 291.129024 
L 172.212893 288.849689 
L 175.492231 286.110021 
L 178.77157 282.921051 
L 182.050909 279.29562 
L 185.330248 275.248328 
L 188.609587 270.79547 
L 191.888926 265.954977 
L 195.168264 260.746339 
L 198.447603 255.190531 
L 201.726942 249.309924 
L 205.006281 243.128196 
L 208.28562 236.670239 
L 211.564959 229.962058 
L 214.844298 223.030663 
L 218.123636 215.903965 
L 221.402975 208.61066 
L 224.682314 201.180117 
L 227.961653 193.642255 
L 231.240992 186.027426 
L 234.520331 178.366294 
L 237.799669 170.689706 
L 241.079008 163.028574 
L 244.358347 155.413745 
L 247.637686 147.875883 
L 250.917025 140.44534 
L 254.196364 133.152035 
L 257.475702 126.025337 
L 260.755041 119.093942 
L 264.03438 112.385761 
L 267.313719 105.927804 
L 270.593058 99.746076 
L 273.872397 93.865469 
L 277.151736 88.309661 
L 280.431074 83.101023 
L 283.710413 78.26053 
L 286.989752 73.807672 
L 290.269091 69.76038 
L 293.54843 66.134949 
L 296.827769 62.945979 
L 300.107107 60.206311 
L 303.386446 57.926976 
L 306.665785 56.117151 
L 309.945124 54.784126 
L 313.224463 53.933267 
L 316.503802 53.568 
L 319.78314 53.689796 
L 323.062479 54.298166 
L 326.341818 55.390658 
L 329.621157 56.962874 
L 332.900496 59.008484 
L 336.179835 61.51925 
L 339.459174 64.485062 
L 342.738512 67.893979 
L 346.017851 71.732273 
L 349.29719 75.984489 
L 352.576529 80.633505 
L 355.855868 85.660601 
L 359.135207 91.045535 
L 362.414545 96.766623 
L 365.693884 102.800828 
L 368.973223 109.123854 
L 372.252562 115.710239 
L 375.531901 122.533463 
L 378.81124 129.56605 
L 382.090579 136.779683 
L 385.369917 144.145315 
L 388.649256 151.633288 
L 391.928595 159.213449 
L 395.207934 166.855277 
L 398.487273 174.528 
" clip-path="url(#p24e86594e9)" style="fill: none; stroke: #1f77b4; stroke-width: 1.5; stroke-linecap: square"/>
   </g>
  </g>
 </g>
 <defs>
  <clipPath id="p24e86594e9">
   <rect x="57.6" y="41.472" width="357.12" height="266.112"/>
  </clipPath>
 </defs>
</svg>
